Coordinates
version=1
nRows=6
nColumns=63
inDegrees=yes

Units are S.I. units (second, meters, Newtons, ...)
If the header above contains a line with 'inDegrees', this indicates whether rotational values are in degrees (yes) or radians (no).

endheader
time	pelvis_tilt	pelvis_list	pelvis_rotation	pelvis_tx	pelvis_ty	pelvis_tz	hip_flexion_r	hip_adduction_r	hip_rotation_r	knee_angle_r	knee_angle_r_beta	ankle_angle_r	subtalar_angle_r	mtp_angle_r	hip_flexion_l	hip_adduction_l	hip_rotation_l	knee_angle_l	knee_angle_l_beta	ankle_angle_l	subtalar_angle_l	mtp_angle_l	L5_S1_Flex_Ext	L5_S1_Lat_Bending	L5_S1_axial_rotation	L4_L5_Flex_Ext	L4_L5_Lat_Bending	L4_L5_axial_rotation	L3_L4_Flex_Ext	L3_L4_Lat_Bending	L3_L4_axial_rotation	L2_L3_Flex_Ext	L2_L3_Lat_Bending	L2_L3_axial_rotation	L1_L2_Flex_Ext	L1_L2_Lat_Bending	L1_L2_axial_rotation	L1_T12_Flex_Ext	L1_T12_Lat_Bending	L1_T12_axial_rotation	Abs_r3	Abs_r2	Abs_r1	Abs_t1	Abs_t2	neck_flexion	neck_bending	neck_rotation	arm_flex_r	arm_add_r	arm_rot_r	elbow_flex_r	pro_sup_r	wrist_flex_r	wrist_dev_r	arm_flex_l	arm_add_l	arm_rot_l	elbow_flex_l	pro_sup_l	wrist_flex_l	wrist_dev_l
1.050847	-3.030122	-8.226764	95.767202	0.145940	0.955900	0.606497	-1.041246	-3.910567	-20.006170	12.177339	0.212535	29.011387	18.777636	0.000000	2.208058	2.664776	9.958575	14.317349	0.249885	26.927691	-8.914898	0.000000	-0.093319	0.018625	0.462087	-0.173302	0.024771	0.490968	-0.153313	0.045284	0.490968	-0.106654	0.045284	0.404326	-0.086656	0.037980	0.375446	-0.053322	0.028850	0.346565	-0.666566	0.210687	2.569991	0.000000	0.000000	25.709274	-0.573799	-7.837061	13.928486	-12.713759	130.953509	1.302196	0.358064	-3.794610	-6.965670	11.605069	-13.829151	28.893643	27.210028	89.867085	-13.450978	-2.756120
1.067797	-2.773932	-8.267292	95.635925	0.145999	0.955301	0.607355	-0.859214	-3.710546	-19.957944	12.421818	0.216802	28.835858	18.794238	0.000000	2.556740	2.314744	8.940193	14.876346	0.259641	27.381538	-7.928801	0.000000	-0.104190	0.052840	0.456113	-0.193492	0.070277	0.484620	-0.171174	0.128475	0.484620	-0.119079	0.128475	0.399099	-0.096751	0.107751	0.370592	-0.059534	0.081849	0.342085	-0.744220	0.597735	2.536765	0.000000	0.000000	25.833441	-0.458514	-7.295172	13.179820	-14.231161	130.726497	1.162029	0.205192	-4.110172	-6.893396	11.304160	-14.911812	27.541024	26.357333	89.233573	-13.568358	-3.076872
1.084746	-2.485127	-8.342207	95.475022	0.146096	0.954564	0.608625	-0.561325	-3.488144	-19.829766	12.742901	0.222406	28.792217	18.813079	0.000000	3.016089	1.915137	7.726996	15.542823	0.271273	27.917452	-6.711914	0.000000	-0.114367	0.091072	0.453469	-0.212391	0.121125	0.481811	-0.187894	0.221431	0.481811	-0.130710	0.221431	0.396786	-0.106201	0.185713	0.368444	-0.065349	0.141070	0.340102	-0.816912	1.030220	2.522060	0.000000	0.000000	26.000911	-0.350582	-6.737963	12.330249	-15.765016	128.416260	1.456600	0.996399	-4.497066	-6.807572	11.095999	-15.788363	28.369168	25.037629	86.480877	-13.461335	-3.662176
1.101695	-2.187280	-8.420133	95.292829	0.146199	0.953740	0.610145	-0.207682	-3.258902	-19.616751	13.103203	0.228694	28.882020	18.840960	0.000000	3.518852	1.492128	6.362984	16.257536	0.283748	28.530113	-5.284482	0.000000	-0.126333	0.130577	0.453350	-0.234613	0.173668	0.481685	-0.207553	0.317486	0.481685	-0.144386	0.317486	0.396681	-0.117313	0.266274	0.368347	-0.072187	0.202264	0.340013	-0.902385	1.477118	2.521398	0.000000	0.000000	26.200933	-0.240856	-6.194058	11.348146	-17.276842	123.942879	2.180373	2.791731	-5.001082	-6.662246	10.930275	-16.465278	31.111221	23.338820	81.889947	-13.206029	-4.421103
1.118644	-1.913458	-8.504786	95.096759	0.146349	0.952857	0.611785	0.189443	-3.051138	-19.342459	13.495406	0.235539	29.102671	18.865023	0.000000	4.034829	1.113332	5.184718	16.965967	0.296112	29.122993	-4.120110	0.000000	-0.137869	0.166618	0.451118	-0.256036	0.221602	0.479313	-0.226505	0.405116	0.479313	-0.157570	0.405116	0.394728	-0.128025	0.339768	0.366534	-0.078778	0.258092	0.338339	-0.984784	1.884821	2.508984	0.000000	0.000000	26.420322	-0.108142	-5.658259	10.445435	-18.455860	120.574347	2.642248	2.890970	-5.128009	-6.783126	10.727550	-16.985545	35.448594	21.406099	75.919342	-12.857366	-5.310420
1.135593	-1.668842	-8.564531	94.876652	0.146520	0.951976	0.613387	0.567131	-2.863419	-18.997149	13.872407	0.242119	29.422180	18.887990	0.000000	4.503866	0.757429	3.983705	17.622404	0.307569	29.770783	-2.883954	0.000000	-0.151707	0.198862	0.449292	-0.281735	0.264486	0.477372	-0.249239	0.483513	0.477372	-0.173386	0.483513	0.393130	-0.140875	0.405519	0.365049	-0.086685	0.308037	0.336969	-1.083627	2.249565	2.498825	0.000000	0.000000	26.632651	0.039736	-5.153265	9.488443	-19.480944	116.642577	3.242706	2.989774	-5.222470	-6.841071	10.487681	-17.368104	41.139829	19.328366	68.755691	-12.422748	-6.207495
